<?xml version="1.0" encoding="utf-8"?>
<!-- Generator: Adobe Illustrator 16.0.0, SVG Export Plug-In . SVG Version: 6.00 Build 0)  -->
<!DOCTYPE svg PUBLIC "-//W3C//DTD SVG 1.1//EN" "http://www.w3.org/Graphics/SVG/1.1/DTD/svg11.dtd">
<svg version="1.1" id="Layer_1" xmlns="http://www.w3.org/2000/svg" xmlns:xlink="http://www.w3.org/1999/xlink" x="0px" y="0px"
	 width="1662.26px" height="1572.438px" viewBox="0 0 1662.26 1572.438" enable-background="new 0 0 1662.26 1572.438"
	 xml:space="preserve">
<g>
	<g>
		<g>
			<path fill="none" stroke="#DEE5F8" stroke-width="5" stroke-miterlimit="10" d="M632.295,1075.796h-221.54
				c-5.478,0-9.918-4.44-9.918-9.918v-20.914c0-5.478,4.44-9.918,9.918-9.918h221.54c5.478,0,9.918,4.44,9.918,9.918v20.914
				C642.214,1071.355,637.773,1075.796,632.295,1075.796z"/>
			<path fill="none" stroke="#DEE5F8" stroke-width="3.75" stroke-miterlimit="10" d="M764.284,1075.379h-90.166
				c-6.858,0-12.417-5.56-12.417-12.418v-15.915c0-6.858,5.56-12.418,12.417-12.418h90.166c6.858,0,12.417,5.56,12.417,12.418
				v15.915C776.701,1069.819,771.142,1075.379,764.284,1075.379z"/>
			<path fill="none" stroke="#DEE5F8" stroke-width="5" stroke-miterlimit="10" d="M709.206,525.004h-90.165
				c-6.858,0-12.417-5.56-12.417-12.417v-15.916c0-6.858,5.56-12.417,12.417-12.417h90.165c6.858,0,12.417,5.56,12.417,12.417
				v15.916C721.624,519.444,716.064,525.004,709.206,525.004z"/>
			<path fill="none" stroke="#DEE5F8" stroke-width="5" stroke-miterlimit="10" d="M845.245,525.004h-90.166
				c-6.858,0-12.417-5.56-12.417-12.417v-15.916c0-6.858,5.56-12.417,12.417-12.417h90.166c6.857,0,12.417,5.56,12.417,12.417
				v15.916C857.662,519.444,852.102,525.004,845.245,525.004z"/>
			<path fill="none" stroke="#DEE5F8" stroke-width="5" stroke-miterlimit="10" d="M1190.711,891.59h-90.166
				c-6.857,0-12.417-5.56-12.417-12.417v-15.916c0-6.857,5.56-12.417,12.417-12.417h90.166c6.857,0,12.417,5.56,12.417,12.417
				v15.916C1203.128,886.03,1197.569,891.59,1190.711,891.59z"/>
		</g>
		<g>
			<path fill="#FBC343" d="M1622.435,343.158v11.743c3.948,0,8.385,1.07,11.348,9.006c3.255,8.716,3.406,22.474,0.426,38.738
				c-3.354,18.313-10.562,39.437-20.842,61.09c-21.195,44.642-54.138,89.216-93.989,127.508l-5.91-130.432l34.797-48.18h29.335
				c11.162,0,20.243-9.081,20.243-20.244v-27.471c0.174-0.267,0.901-1.212,3.146-2.516c10.665-6.198,17.55-7.499,21.447-7.5V343.158
				 M1622.434,343.158c-7.513,0-16.644,2.869-27.347,9.089c-4.905,2.851-8.988,6.869-8.988,12.542v27.598
				c0,4.695-3.806,8.501-8.5,8.501h-35.34l-40.708,56.365l7.23,159.565C1645.513,498.169,1677.659,343.157,1622.434,343.158
				L1622.434,343.158z"/>
			<path fill="#FBC343" d="M1201.636,343.158v11.743c3.897,0,10.781,1.301,21.447,7.5c2.244,1.304,2.972,2.249,3.146,2.516v27.471
				c0,11.163,9.081,20.244,20.243,20.244h29.335l34.797,48.18l-5.91,130.432c-39.852-38.292-72.794-82.866-93.989-127.508
				c-10.28-21.653-17.487-42.777-20.842-61.09c-2.98-16.265-2.829-30.022,0.426-38.738c2.963-7.936,7.399-9.006,11.348-9.006
				V343.158 M1201.637,343.158c-55.226-0.001-23.079,155.011,113.652,273.661l7.23-159.565l-40.708-56.365h-35.34
				c-4.694,0-8.5-3.806-8.5-8.501V364.79c0-5.673-4.083-9.691-8.988-12.542C1218.281,346.027,1209.15,343.159,1201.637,343.158
				L1201.637,343.158z"/>
			<rect x="1296.956" y="899.974" fill="#6F3428" width="230.16" height="119.442"/>
			<path fill="#FBC343" d="M1491.887,899.974h-159.703v-38.97c0-17.405,14.11-31.515,31.515-31.515h96.674
				c17.405,0,31.515,14.109,31.515,31.515V899.974z"/>
			<path fill="#FBC343" d="M1461.747,829.489h-99.422v-24.26c0-10.835,8.783-19.62,19.619-19.62h60.184
				c10.836,0,19.619,8.784,19.619,19.62V829.489z"/>
			<path fill="#FBC343" d="M1439.77,773.337l3.1,12.275h-61.65l3.075-12.275c4.101-16.3,4.101-32.725,0-49.025l-3.075-12.275h61.65
				l-3.1,12.275c-1.351,5.375-2.25,10.75-2.7,16.15C1436.12,751.437,1437.02,762.412,1439.77,773.337z"/>
			<path opacity="0.3" fill="#6F3428" d="M1442.87,712.037l-3.1,12.275c-1.351,5.375-2.25,10.75-2.7,16.15
				c-3.367-22.458-55.851-28.425-55.851-28.425H1442.87z"/>
			<path fill="#FBC343" d="M1461.745,668.162v24.25c0,2-0.3,3.925-0.85,5.75c-2.45,8.025-9.926,13.875-18.775,13.875h-60.175
				c-10.825,0-19.625-8.775-19.625-19.625v-24.25H1461.745z"/>
			<path opacity="0.3" fill="#6F3428" d="M1461.745,668.162v24.25c0,2-0.3,3.925-0.85,5.75c-26.551-24.4-93.976-25.125-98.575-25.15
				v-4.85H1461.745z"/>
			<path fill="#FBC343" d="M1566.445,375.112l-28.5,124.45l-31.625,138.125c-4.726,20.675-23.125,35.325-44.325,35.325h-99.925
				c-21.125,0-39.45-14.55-44.275-35.125c-0.024-0.075-0.024-0.125-0.05-0.2l-60.125-262.575c-1.225-5.35,2.175-10.7,7.575-11.75
				c97.899-19.35,195.8-19.35,293.675,0C1564.27,364.412,1567.669,369.762,1566.445,375.112z"/>
			
				<ellipse transform="matrix(0.9926 -0.121 0.121 0.9926 -44.8434 164.8586)" opacity="0.6" fill="#FFFFFF" cx="1334.57" cy="451.545" rx="12.05" ry="32.708"/>
			<path opacity="0.1" fill="#6F3428" d="M1537.945,499.562l-31.625,138.125c-4.726,20.675-23.125,35.325-44.325,35.325h-99.925
				c-21.125,0-39.45-14.55-44.275-35.125C1427.62,630.962,1500.669,561.337,1537.945,499.562z"/>
			<g opacity="0.3">
				<path fill="#6F3428" d="M1381.219,785.612c5.053-1.265,10.183-2.018,15.326-2.558c5.146-0.558,10.315-0.793,15.49-0.883
					c10.331-0.026,20.786,0.674,30.834,3.44c-5.207,0.143-10.324,0.13-15.449,0.161l-15.353,0.146
					C1401.826,785.966,1391.596,786.124,1381.219,785.612z"/>
			</g>
			<g opacity="0.3">
				<path fill="#6F3428" d="M1362.325,829.489c16.501-2.237,33.096-3.098,49.702-3.373c8.305-0.085,16.619,0.01,24.927,0.458
					c8.298,0.416,16.638,1.188,24.793,2.915c-8.313-0.277-16.576-0.063-24.852,0.011l-24.822,0.363
					C1395.516,830.018,1378.955,830.198,1362.325,829.489z"/>
			</g>
			<g>
				<path fill="#FBC343" d="M1367.346,176.729l10.293,74.083c0.597,4.292-5.158,6.268-7.325,2.516l-37.396-64.774
					c-2.295-3.973-0.38-9.038,3.958-10.528l20.88-7.171C1362.093,169.365,1366.715,172.184,1367.346,176.729z"/>
				<path fill="#FBC343" d="M1470.75,132.378l-40.478,127.174c-2.345,7.368-13.13,6.118-13.728-1.591L1406.226,124.9
					c-0.634-8.163,6.348-14.84,14.478-13.898l39.131,4.535C1467.965,116.479,1473.234,124.576,1470.75,132.378z"/>
				<path fill="#FBC343" d="M1518.014,210.283l-48.291,46.052c-2.798,2.668-7.228-0.47-5.639-3.994l27.428-60.833
					c1.682-3.732,6.348-4.984,9.688-2.619l16.071,11.386C1520.611,202.641,1520.977,207.458,1518.014,210.283z"/>
			</g>
		</g>
		<g>
			<g>
				<path fill="#102048" d="M431.847,586.427c21.67,13.496,44.671-3.957,47.191-18.795c3.75-22.083-16.355-47.5-47.191-28.646
					c0,0-26.723-31.25-52.683-0.313c0,0-44.293,22.292-19.71,61.042c24.509,38.633,55.43-13.991,55.43-13.991L431.847,586.427z"/>
				<path fill="#E28B6D" d="M447.589,596.108c11.875,15.938,17.096,22.216,15.423,27.202c-1.673,4.986-13.548,5.392-13.548,5.392
					L447.589,596.108z"/>
				<polygon fill="#F9B384" points="429.154,645.348 422.354,662.348 396.054,728.123 353.629,677.898 393.679,618.673 
					417.579,636.648 				"/>
				<path fill="#102048" d="M429.154,645.348l-6.8,17c-9.275-9.175-18.3-21.15-21.975-26.45l17.2,0.75L429.154,645.348z"/>
				<path fill="#F9B384" d="M453.779,636.823c-0.375,8.95-2.15,15.925-6.525,19.025c-12.575,8.9-58.75-29.05-58.75-29.05
					l-3.15-53.425l64.925,4.625c0.125,8.575,1.05,18.225,1.925,27.75C453.204,616.873,454.179,627.848,453.779,636.823z"/>
				<path fill="#102048" d="M391.381,599.611c15.886,2.969,19.969-14.585,19.969-14.585c17.01-10.415,31.073,13.647,46.371,4.685
					l2.358-30.725l-67.3-3.438l-24.263,15.625l6.875,18.75L391.381,599.611z"/>
				<path fill="#F9B384" d="M401.329,599.949c-8.55-9.713-22.364-5.553-23.682,4.867c-1.318,10.42,7.29,27.989,21.268,17.798
					L401.329,599.949z"/>
				<path fill="#FC8879" d="M453.779,636.823c-1.35,0.4-2.8,0.6-4.3,0.6c-8.825,0-15.975-7.15-15.975-15.975
					c0-8.8,7.15-15.95,15.975-15.95c0.925,0,1.85,0.075,2.725,0.25C453.204,616.873,454.179,627.848,453.779,636.823z"/>
				<path fill="#102048" d="M395.5,606.868c-0.5-1.144-1.39-2.078-2.376-2.844c-1.006-0.74-2.102-1.393-3.275-1.675
					c-1.15-0.336-2.333-0.359-3.354,0.099c-1.046,0.42-1.882,1.366-2.64,2.459l-0.678-0.279c0.345-1.385,1.156-2.801,2.567-3.637
					c1.414-0.821,3.154-0.847,4.607-0.431c1.454,0.468,2.777,1.22,3.82,2.277c1.032,1.036,1.922,2.351,2.048,3.892L395.5,606.868z"
					/>
			</g>
			<g>
				<path fill="#F9B384" d="M457.722,768.139c14.026-16.301,15.42-39.581,20.734-44.359c9.896-8.897,5.376,18.289,5.376,18.289
					s6.438-18.308,21.906-22.454c10.13-2.715,11.938,6.708,11.061,14.593c-1.457,13.089-5.762,28.067-16.344,36.766
					c-4.505,3.703-10.261,6.527-13.505,11.524c-1.844,2.84-3.443,6.055-4.336,9.338L457.722,768.139z"/>
				<polygon fill="#708CD5" points="455.496,768.673 462.016,759.892 488.53,783.465 481.121,794.171 				"/>
				<path fill="#102048" d="M371.675,855.14l84.361-94.042l31.322,30.739c-22.398,50.935-52.07,83.615-99.639,108.606
					L371.675,855.14z"/>
				<path fill="#E28B6D" d="M491.719,741.311c1.667-0.335,3.282,0.054,4.77,0.519c1.503,0.468,2.888,1.175,4.229,1.934
					c1.335,0.772,2.594,1.659,3.763,2.671c1.155,1.076,2.296,1.985,3.031,3.778l-0.913,0.348c-0.833-0.78-2.275-1.59-3.432-2.367
					c-1.229-0.775-2.465-1.549-3.713-2.287c-1.242-0.749-2.506-1.446-3.768-2.125c-1.277-0.631-2.569-1.223-3.913-1.495
					L491.719,741.311z"/>
				<path fill="#E28B6D" d="M483.642,747.013c1.703,0.661,3.415,1.641,4.613,3.29c1.219,1.625,1.67,3.806,1.426,5.777
					c-0.237,1.99-1.042,3.802-2.142,5.346c-1.122,1.517-2.458,2.937-4.489,3.527l-0.311-0.927c1.208-0.883,2.16-2.381,2.943-3.773
					c0.766-1.433,1.336-2.956,1.527-4.467c0.207-1.518-0.05-2.985-0.734-4.345c-0.725-1.358-1.98-2.44-3.292-3.564L483.642,747.013z
					"/>
			</g>
			<path fill="#708CD5" d="M191.327,855.14l-89.846-24.494l0,0c1.816-6.66,8.688-10.588,15.348-8.772l65.727,17.919
				C189.216,841.607,193.143,848.479,191.327,855.14L191.327,855.14z"/>
			<g>
				<path fill="#1F3C88" d="M156.638,1346.169c0,0,18.372,39.083,71.219,26.523l-25.486-33.811L156.638,1346.169z"/>
				<g>
					<polygon fill="#F9B384" points="174.572,1341.357 155.756,1383.675 176.292,1416.051 201.69,1395.39 212.917,1348.82 					"/>
				</g>
				<g>
					<g>
						<path fill="#1F3C88" d="M155.756,1383.675l45.934,11.715l26.055,64.47c2.438,6.034-3.834,11.904-9.694,9.071l-81.493-39.401
							c-5.899-2.853-8.442-9.893-5.728-15.856l0.719-1.579C136.805,1400.546,145.191,1390.7,155.756,1383.675L155.756,1383.675z"/>
					</g>
					<g>
						<path fill="#1F3C88" d="M155.756,1383.675l45.934,11.715l26.055,64.47c2.438,6.034-3.834,11.904-9.694,9.071l-81.493-39.401
							c-5.899-2.853-8.442-9.893-5.728-15.856l0.719-1.579C136.805,1400.546,145.191,1390.7,155.756,1383.675L155.756,1383.675z"/>
					</g>
				</g>
				<g>
					
						<rect x="203.683" y="1414.166" transform="matrix(0.4887 0.8724 -0.8724 0.4887 1344.2614 547.5972)" fill="#ACBFEE" width="2.503" height="13.046"/>
					
						<rect x="209.375" y="1428.433" transform="matrix(0.4896 0.872 -0.872 0.4896 1358.7543 548.8075)" fill="#ACBFEE" width="2.497" height="13.048"/>
				</g>
				<path fill="#102048" d="M217.802,909.882c-8.888,20.913-20.946,53.069-0.734,91.692c8.226,15.719,10.993,33.721,7.021,51.012
					l-67.45,293.583l71.219,26.523l145.738-425.138L217.802,909.882z"/>
			</g>
			<g>
				<path fill="#708CD5" d="M408.344,698.465c14.391,41.316,14.797,111.856-12.548,186.284l-42.175,12.034l16.951-137.854
					L408.344,698.465z"/>
				<path fill="#708CD5" d="M362.042,662.988l11.553-25.565c0,0,32.734,22.813,49.921,50l-20.049,37.728L362.042,662.988z"/>
			</g>
			<path fill="#1F3C88" d="M370.554,879.298c-112.05-3.6-170.7,59.2-170.275,56.75c18.025-61.149,35-106.875,50.2-141
				c27.55-61.925,49.2-85.825,60.45-94.825c5.5-4.425,8.525-5.275,8.525-5.275l51.025-42.725c4.425,2.275,8.625,5.525,12.425,9.1
				c14.375,13.5,22.6,32.15,24.55,51.75C415.104,789.798,370.554,879.298,370.554,879.298z"/>
			<path fill="#102048" d="M338.204,702.632c-16.35,8.675-44.758,54.016-87.725,92.417c27.55-61.925,49.2-85.825,60.45-94.825
				L338.204,702.632z"/>
			<g>
				<path fill="#F9B384" d="M153.978,797.803l-18.034,25.617c0,0-2.233,10.471-7.059,14.631c0,0,2.161,10.729,10.598,14.493
					c9.633,4.298,21.514,4.065,29.218-6.932s8.707-43.605,8.707-43.605L153.978,797.803z"/>
				<path fill="#708CD5" d="M141.538,803.048c0,1.667-3.333,10.833-3.333,10.833l39.205,5.416v-17.291L141.538,803.048z"/>
				<path fill="#1F3C88" d="M370.49,652.215c0,0-74.642-11.192-135.278,20.226c-8.551,4.431-16.353,10.188-23.27,16.89
					c-29.274,28.364-55.424,56.295-75.208,115.597l46.612,7.616l46.987-69.441c4.052-5.945,10.189-10.138,17.204-11.737
					c24.885-5.676,84.539-19.634,93.896-25.088L370.49,652.215z"/>
			</g>
			<g>
				<path fill="#1F3C88" d="M435.902,1098.635c0,0,28.071,37.399,74.562,18.615l-31.01-32.952L435.902,1098.635z"/>
				<g>
					<polygon fill="#F9B384" points="453.085,1088.815 434.27,1131.132 454.807,1163.508 480.204,1142.847 491.431,1096.277 					
						"/>
				</g>
				<g>
					<path fill="#1F3C88" d="M434.27,1131.132l45.934,11.715l26.054,64.47c2.439,6.034-3.834,11.904-9.694,9.071l-81.493-39.401
						c-5.899-2.853-8.442-9.893-5.728-15.856l0.719-1.579C415.319,1148.003,423.705,1138.158,434.27,1131.132L434.27,1131.132z"/>
				</g>
				<g>
					
						<rect x="482.017" y="1160.469" transform="matrix(0.4887 0.8724 -0.8724 0.4887 1265.235 175.0513)" fill="#ACBFEE" width="2.503" height="13.047"/>
				</g>
				<g>
					
						<rect x="487.708" y="1174.737" transform="matrix(0.4897 0.8719 -0.8719 0.4897 1279.4194 176.4604)" fill="#ACBFEE" width="2.497" height="13.048"/>
				</g>
				<path fill="#102048" d="M217.802,909.882c15.313-10.6,112.978-36.206,174.977-34.334c68.908,2.081,124.214,9.91,146.694,60.372
					s-29.01,181.33-29.01,181.33l-74.562-18.615l17.971-121.324c0,0-94.418,11.903-139.418,12.404L217.802,909.882z"/>
				<path fill="#708CD5" d="M373.585,986.493c-7.679,0.039-15.054,1.962-22.646,3.522c-7.601,1.559-15.427,2.173-23.179,2.083
					c-7.76-0.156-15.474-0.886-23.13-1.902c-3.823-0.553-7.625-1.221-11.434-1.833c-3.78-0.777-7.566-1.507-11.331-2.335
					l0.177-0.961c3.821,0.475,7.621,1.046,11.427,1.57c3.812,0.465,7.616,0.986,11.429,1.392c7.623,0.832,15.26,1.462,22.895,1.593
					c7.642,0.218,15.232-0.435,22.768-1.684c3.775-0.61,7.55-1.396,11.401-1.935c3.863-0.492,7.768-0.632,11.643-0.487
					L373.585,986.493z"/>
			</g>
			<path fill="#ACBFEE" d="M231.204,913.923l-23.675,86.875l-2.775,10.125c-2.925,10.7-13.975,17.025-24.7,14.101L24.979,982.748
				c-10.725-2.925-17.05-13.975-14.125-24.7l15.6-57.175l10.85-39.8c2.925-10.725,13.975-17.05,24.675-14.125l155.1,42.275
				C227.804,892.148,234.104,903.198,231.204,913.923z"/>
			<path fill="#708CD5" d="M87.679,881.315l13.759-50.473c1.816-6.66,8.688-10.588,15.348-8.771l0,0l-17.047,62.532L87.679,881.315z
				"/>
			<path fill="#708CD5" d="M166.329,899.355l16.24-59.569l0,0c6.661,1.815,10.588,8.688,8.772,15.348l-12.952,47.51L166.329,899.355
				z"/>
			<circle fill="#102048" cx="92.821" cy="886.215" r="10.764"/>
			<circle fill="#102048" cx="171.63" cy="903.674" r="10.764"/>
			<path opacity="0.15" fill="#102048" d="M207.529,1000.798l-2.775,10.125c-2.925,10.7-13.975,17.025-24.7,14.101L24.979,982.748
				c-10.725-2.925-17.05-13.975-14.125-24.7l20.706-75.902C26.329,953.941,138.204,1000.548,207.529,1000.798z"/>
		</g>
		<g>
			<polygon opacity="0.2" fill="#ACBFEE" points="1558.495,1022.719 1558.495,1128.872 393.841,1572.438 120.292,1572.438 
				120.292,1470.337 391.392,1470.337 391.691,1414.087 392.017,1357.688 664.341,1357.688 664.341,1245.063 935.442,1245.063 
				935.442,1135.263 1206.567,1135.263 1206.567,1022.612 			"/>
			<path fill="#ACBFEE" d="M932.508,1247.983H665.13c-2.994,0-5.442-2.449-5.442-5.442l0,0c0-2.993,2.449-5.442,5.442-5.442h267.378
				c2.993,0,5.442,2.449,5.442,5.442l0,0C937.951,1245.534,935.501,1247.983,932.508,1247.983z"/>
			<path fill="#ACBFEE" d="M1204.175,1139.65H936.796c-2.993,0-5.441-2.449-5.441-5.442l0,0c0-2.993,2.448-5.442,5.441-5.442
				h267.379c2.993,0,5.442,2.449,5.442,5.442l0,0C1209.618,1137.201,1207.168,1139.65,1204.175,1139.65z"/>
			<path fill="#ACBFEE" d="M1558.667,1025.555h-352.596c-2.993,0-5.442-2.449-5.442-5.442l0,0c0-2.993,2.449-5.442,5.442-5.442
				h352.596c2.993,0,5.442,2.449,5.442,5.442l0,0C1564.109,1023.105,1561.66,1025.555,1558.667,1025.555z"/>
			<path fill="#ACBFEE" d="M661.181,1359.973H393.803c-2.993,0-5.442-2.448-5.442-5.442l0,0c0-2.993,2.449-5.441,5.442-5.441
				h267.378c2.993,0,5.442,2.448,5.442,5.441l0,0C666.624,1357.524,664.174,1359.973,661.181,1359.973z"/>
			<path fill="#ACBFEE" d="M388.806,1472.606H121.428c-2.994,0-5.442-2.449-5.442-5.442l0,0c0-2.993,2.449-5.442,5.442-5.442
				h267.378c2.993,0,5.442,2.449,5.442,5.442l0,0C394.249,1470.157,391.799,1472.606,388.806,1472.606z"/>
		</g>
		<g>
			<g>
				<g>
					<path fill="#DEE5F8" d="M687.365,874.051l-1.488-16.806l26.798-2.372c139.166-12.311,256.231-106.362,298.242-239.606
						l34.289-108.761l16.089,5.073l-34.289,108.761c-44.067,139.767-166.865,238.421-312.843,251.338L687.365,874.051z"/>
				</g>
				<g>
					<polygon fill="#DEE5F8" points="1053.688,609.677 1046.36,529.616 991.946,592.675 979.172,581.654 1059.538,488.523 
						1070.486,608.14 					"/>
				</g>
			</g>
			<path fill="#DEE5F8" d="M429.763,290.448c0,2.875-1.085,5.647-3.117,8.247h-305.71c-1.171-2.6-1.791-5.372-1.791-8.247
				c0-15.341,17.82-27.772,39.806-27.772c6.973,0,13.516,1.257,19.214,3.461c2.996-21.78,32.851-38.894,69.231-38.894
				c37.93,0,68.749,18.578,69.489,41.649c11.897-3.874,27.1-6.216,43.646-6.216C398.772,262.676,429.763,275.107,429.763,290.448z"
				/>
			<path fill="#DEE5F8" d="M962.578,84.814c0,3.441-1.298,6.759-3.729,9.87H592.967c-1.401-3.111-2.143-6.429-2.143-9.87
				c0-18.36,21.327-33.238,47.642-33.238c8.345,0,16.175,1.504,22.996,4.142c3.585-26.067,39.316-46.549,82.857-46.549
				c45.396,0,82.28,22.234,83.166,49.846c14.239-4.637,32.434-7.439,52.237-7.439C925.487,51.576,962.578,66.454,962.578,84.814z"/>
		</g>
	</g>
</g>
</svg>
